<svg id="visual" viewBox="0 0 900 900" width="900" height="900" xmlns="http://www.w3.org/2000/svg" xmlns:xlink="http://www.w3.org/1999/xlink" version="1.1"><rect x="0" y="0" width="900" height="900" fill="#ffffff"></rect><defs><linearGradient id="grad1_0" x1="0%" y1="100%" x2="100%" y2="0%"><stop offset="30%" stop-color="#ffc0cb" stop-opacity="1"></stop><stop offset="70%" stop-color="#ffc0cb" stop-opacity="1"></stop></linearGradient></defs><defs><linearGradient id="grad1_1" x1="0%" y1="100%" x2="100%" y2="0%"><stop offset="30%" stop-color="#ffc0cb" stop-opacity="1"></stop><stop offset="70%" stop-color="#ffe0e5" stop-opacity="1"></stop></linearGradient></defs><defs><linearGradient id="grad1_2" x1="0%" y1="100%" x2="100%" y2="0%"><stop offset="30%" stop-color="#ffffff" stop-opacity="1"></stop><stop offset="70%" stop-color="#ffe0e5" stop-opacity="1"></stop></linearGradient></defs><defs><linearGradient id="grad2_0" x1="0%" y1="100%" x2="100%" y2="0%"><stop offset="30%" stop-color="#ffc0cb" stop-opacity="1"></stop><stop offset="70%" stop-color="#ffc0cb" stop-opacity="1"></stop></linearGradient></defs><defs><linearGradient id="grad2_1" x1="0%" y1="100%" x2="100%" y2="0%"><stop offset="30%" stop-color="#ffe0e5" stop-opacity="1"></stop><stop offset="70%" stop-color="#ffc0cb" stop-opacity="1"></stop></linearGradient></defs><defs><linearGradient id="grad2_2" x1="0%" y1="100%" x2="100%" y2="0%"><stop offset="30%" stop-color="#ffe0e5" stop-opacity="1"></stop><stop offset="70%" stop-color="#ffffff" stop-opacity="1"></stop></linearGradient></defs><g transform="translate(900, 900)"><path d="M-540.9 0C-494.9 -54.5 -448.9 -109.1 -429.6 -177.9C-410.4 -246.8 -417.9 -330.1 -382.5 -382.5C-347.1 -434.9 -268.8 -456.4 -197.8 -477.6C-126.9 -498.9 -63.5 -519.9 0 -540.9L0 0Z" fill="#ffeff2"></path><path d="M-360.6 0C-329.9 -36.4 -299.2 -72.7 -286.4 -118.6C-273.6 -164.6 -278.6 -220.1 -255 -255C-231.4 -289.9 -179.2 -304.3 -131.9 -318.4C-84.6 -332.6 -42.3 -346.6 0 -360.6L0 0Z" fill="#ffd0d8"></path><path d="M-180.3 0C-165 -18.2 -149.6 -36.4 -143.2 -59.3C-136.8 -82.3 -139.3 -110 -127.5 -127.5C-115.7 -145 -89.6 -152.1 -65.9 -159.2C-42.3 -166.3 -21.2 -173.3 0 -180.3L0 0Z" fill="#ffc0cb"></path></g><g transform="translate(0, 0)"><path d="M540.9 0C488.4 58 435.8 116.1 399.1 165.3C362.4 214.6 341.6 255 316.1 316.1C290.6 377.1 260.5 458.8 207 499.8C153.6 540.7 76.8 540.8 0 540.9L0 0Z" fill="#ffeff2"></path><path d="M360.6 0C325.6 38.7 290.5 77.4 266.1 110.2C241.6 143 227.7 170 210.7 210.7C193.7 251.4 173.6 305.9 138 333.2C102.4 360.4 51.2 360.5 0 360.6L0 0Z" fill="#ffd0d8"></path><path d="M180.3 0C162.8 19.3 145.3 38.7 133 55.1C120.8 71.5 113.9 85 105.4 105.4C96.9 125.7 86.8 152.9 69 166.6C51.2 180.2 25.6 180.3 0 180.3L0 0Z" fill="#ffc0cb"></path></g></svg>